<svg width="24" height="23" viewBox="0 0 24 23" fill="#787D85" xmlns="http://www.w3.org/2000/svg">
<path d="M5.05938 3.74976C5.05884 3.74976 5.05824 3.74976 5.0577 3.74976C4.86854 3.74976 4.69063 3.81888 4.55628 3.9445C4.42046 4.07151 4.34564 4.24063 4.34564 4.42066V14.4808C4.34564 14.8497 4.66706 15.1506 5.06221 15.1515C6.72807 15.1553 9.51906 15.4807 11.4445 17.3695V6.84131C11.4445 6.71626 11.4104 6.59878 11.3461 6.50156C9.76579 4.11589 6.72902 3.75342 5.05938 3.74976Z"/>
<path d="M19.6544 14.4808V4.4206C19.6544 4.24057 19.5796 4.07145 19.4438 3.94444C19.3094 3.81882 19.1314 3.74969 18.9424 3.74969C18.9418 3.74969 18.9412 3.74969 18.9407 3.74969C17.2711 3.75342 14.2343 4.11589 12.654 6.50156C12.5897 6.59878 12.5557 6.71626 12.5557 6.84131V17.3695C14.4811 15.4807 17.272 15.1552 18.9379 15.1515C19.333 15.1505 19.6544 14.8496 19.6544 14.4808Z"/>
<path d="M20.7368 6H20.2179V14.411C20.2179 15.3529 19.3992 16.121 18.3929 16.1233C16.9799 16.1265 14.65 16.3855 13 17.8495C15.8537 17.1945 18.8621 17.6202 20.5766 17.9865C20.7907 18.0322 21.0119 17.985 21.1834 17.8568C21.3543 17.729 21.4524 17.5379 21.4524 17.3328V6.67078C21.4524 6.30092 21.1313 6 20.7368 6Z"/>
<path d="M3.23448 14.4808V6.06976H2.71556C2.32108 6.06976 2 6.37069 2 6.74054V17.4024C2 17.6076 2.09805 17.7986 2.26896 17.9264C2.44034 18.0545 2.66135 18.1019 2.87576 18.0561C4.59024 17.6898 7.59867 17.264 10.4523 17.919C8.80231 16.4551 6.47247 16.1962 5.05947 16.193C4.05321 16.1908 3.23448 15.4227 3.23448 14.4808Z"/>
</svg>
